<?xml version="1.0" encoding="UTF-8"?> <svg xmlns="http://www.w3.org/2000/svg" id="Layer_2" data-name="Layer 2" viewBox="0 0 1540.66 242.38"><defs><style> .cls-1 { fill: #231f20; stroke-width: 0px; } </style></defs><g id="Curved"><g id="Layer_0_" data-name="Layer(0)"><g><path class="cls-1" d="M104.99,90.89l-52.4,30.25c.08-2.94.21-5.19.42-6.12,1.02-6.41,3.5-13.04,6.62-18.71,3.71-6.65,8.82-13.04,14.86-17.71.97-.78,3.2-2.2,4.26-2.86,0,0,78.71-45.44,78.71-45.44L104.99,0,26.28,45.45c-1.08.68-3.29,2.07-4.26,2.86-6.04,4.67-11.15,11.07-14.86,17.71-3.13,5.68-5.61,12.3-6.62,18.71-.89,3.9-.36,31.91-.49,36.46,6.54,3.78,16.39,9.46,26.24,15.15L.16,151.42v60.67l52.48,30.3v-60.67l104.83-60.52-52.48-30.3Z"></path><g><path class="cls-1" d="M233.08,98.1h-28.5v-18.5h28.5v-15.25c0-20.75,14.75-34.75,37-34.75h20v19.75h-22.5c-6.9,0-12.5,5.6-12.5,12.5v17.75h37.5v18.5h-37.5v112.24h-22v-112.24Z"></path><path class="cls-1" d="M381.07,77.1v27.75h-20.25c-14.22,0-25.75,11.53-25.75,25.75v79.74h-22V79.6h20.75v24.5c10.25-15,27-24.5,47.25-27Z"></path><path class="cls-1" d="M501.07,125.1v85.25h-20.75v-14.75c-8,11-21.75,17.25-38.75,17.25-26.25,0-47-18-47-40.5s20-36.75,48.25-36.75h36.25v-11.75c0-19.75-6.5-27.25-28.25-27.25s-29.5,7.25-30.5,27.25h-22.5c4.25-27,26-46.75,53.75-46.75,29.75,0,49.5,19.25,49.5,48ZM479.07,170.35v-16.25h-42.5c-12.25,0-18.25,5-18.25,14.75v7c0,12.25,8.25,17.5,27.75,17.5,23,0,33-7,33-23Z"></path><path class="cls-1" d="M722.56,128.6v81.75h-22v-84.25c0-20.75-8.75-29.5-29-29.5-22.5,0-32,9.25-32,30.75v83h-22v-84.25c0-20.75-8.75-29.5-29-29.5-22.5,0-32,9.25-32,30.75v83h-22V79.6h20.75v19.25c9.5-13.75,23.75-21.75,39.75-21.75,18.5,0,33.25,9.5,40,25,9.75-15.75,25.25-25,43-25,26.25,0,44.5,21,44.5,51.5Z"></path><path class="cls-1" d="M771.81,151.6v5.75c0,25.5,11.25,36,37.75,36,21,0,30.75-7,32.75-23.25h25.5c-8.75,24.75-33.75,42.75-58.25,42.75-35.75,0-62.25-27-62.25-65.25s26.75-70.5,62.25-70.5c33,0,58.75,28.5,58.75,65.25v9.25h-96.49ZM771.81,130.35v2.75h72v-3.25c0-23.5-9.25-33.25-34-33.25-26,0-38,10.25-38,33.75Z"></path><path class="cls-1" d="M883.19,79.62h23.04l26.16,102.3h1.01l23.04-102.3h27.89l24.05,102.34h1l26.19-102.34h22.54l-38.21,130.73h-24.15l-24.64-105.94-2.11-.24-24.94,106.18h-22.93l-37.95-130.73Z"></path><path class="cls-1" d="M1071.43,144.85c0-38.25,27-67.75,62-67.75s62,29.5,62,67.75-27,68-62,68-62-29.75-62-68ZM1170.93,154.85v-20c0-26.75-11.25-38.25-37.5-38.25s-37.5,11.5-37.5,38.25v20c0,27,11.25,38.5,37.5,38.5s37.5-11.5,37.5-38.5Z"></path><path class="cls-1" d="M1290.17,77.1v27.75h-20.25c-14.22,0-25.75,11.53-25.75,25.75v79.74h-22V79.6h20.75v24.5c10.25-15,27-24.5,47.25-27Z"></path><path class="cls-1" d="M1312.42,30.86h22v104.74h17.5l42.25-56h26l-50.25,64.25,50.25,66.5h-28l-40.25-56.25h-17.5v56.25h-22V30.86Z"></path><path class="cls-1" d="M1433.67,171.35h23.25c1,16.75,9,22,31.5,22,21,0,30.25-5.5,30.25-17v-5.5c0-9.25-5.75-13.25-19.5-14.75l-24.5-2.5c-23.5-2.5-36.5-15.75-36.5-35.75,0-21.5,22.75-40.75,49-40.75s48.75,15.5,52,41.5h-23.25c-.75-16.5-8-22-28.25-22-19,0-27.25,5-27.25,16.5v5c0,9.25,5.5,13.75,18.5,15l24,2.5c23.75,2.5,37.75,16,37.75,35.75,0,22-22.5,41.5-51.75,41.5s-52.5-17-55.25-41.5Z"></path></g></g></g></g></svg> 