<svg width="1329" height="1626" viewBox="0 0 1329 1626" fill="none" xmlns="http://www.w3.org/2000/svg">
<path d="M1109.4 36.375C1210.92 36.3751 1293.22 118.677 1293.22 220.2C1293.22 281.02 1263.68 334.939 1218.17 368.399C1263.68 401.86 1293.22 455.78 1293.22 516.6C1293.22 577.464 1263.64 631.417 1218.07 664.872C1263.53 698.338 1293.02 752.224 1293.02 813C1293.02 873.776 1263.53 927.66 1218.07 961.126C1263.64 994.581 1293.22 1048.54 1293.22 1109.4C1293.22 1170.34 1263.57 1224.35 1217.9 1257.8C1263.57 1291.25 1293.22 1345.26 1293.22 1406.2C1293.22 1507.72 1210.92 1590.02 1109.4 1590.02C1048.49 1590.02 994.502 1560.4 961.052 1514.78C927.58 1560.17 873.732 1589.62 813.003 1589.62C752.181 1589.62 698.26 1560.08 664.8 1514.57C631.339 1560.08 577.419 1589.62 516.597 1589.62C455.778 1589.62 401.859 1560.09 368.398 1514.58C334.938 1560.09 281.019 1589.62 220.2 1589.62C118.677 1589.62 36.3751 1507.32 36.375 1405.8C36.375 1344.98 65.9137 1291.06 111.426 1257.6C65.9138 1224.14 36.375 1170.22 36.375 1109.4C36.3751 1048.58 65.913 994.66 111.425 961.199C65.9133 927.738 36.375 873.82 36.375 813C36.375 752.18 65.9131 698.261 111.425 664.8C65.9132 631.339 36.375 577.419 36.375 516.6C36.3751 455.78 65.9131 401.86 111.425 368.399C65.9133 334.939 36.3751 281.02 36.375 220.2C36.375 118.676 118.676 36.375 220.2 36.375C281.019 36.3751 334.938 65.9124 368.398 111.423C401.859 65.9124 455.778 36.375 516.597 36.375C577.419 36.3751 631.339 65.9154 664.8 111.43C698.26 65.9154 752.181 36.375 813.003 36.375C873.821 36.3751 927.739 65.912 961.2 111.422C994.661 65.9121 1048.58 36.375 1109.4 36.375ZM961.299 1218.31C950.227 1233.34 936.923 1246.62 921.875 1257.67C936.954 1268.77 950.276 1282.12 961.348 1297.22C972.452 1282.16 985.798 1268.86 1000.89 1257.8C985.775 1246.73 972.413 1233.4 961.299 1218.31ZM665.102 1218.31C654.004 1233.38 640.665 1246.69 625.573 1257.75C640.545 1268.79 653.782 1282.04 664.8 1297.03C675.892 1281.94 689.232 1268.61 704.327 1257.53C689.36 1246.51 676.125 1233.27 665.102 1218.31ZM368.602 1217.9C357.494 1233.07 344.118 1246.47 328.974 1257.6C344.026 1268.67 357.331 1281.97 368.398 1297.02C379.515 1281.9 392.889 1268.55 408.025 1257.45C392.965 1246.34 379.659 1233 368.602 1217.9ZM368.2 922.045C357.173 936.987 343.937 950.198 328.975 961.199C344.119 972.333 357.494 985.732 368.601 1000.9C379.609 985.866 392.847 972.571 407.826 961.496C392.698 950.437 379.326 937.121 368.2 922.045ZM664.602 921.501C653.593 936.532 640.355 949.827 625.376 960.902C640.549 971.994 653.956 985.357 665.102 1000.49C676.124 985.524 689.36 972.291 704.326 961.272C689.141 950.124 675.733 936.699 664.602 921.501ZM961.102 921.911C950.079 936.875 936.843 950.107 921.876 961.126C936.924 972.174 950.227 985.458 961.299 1000.49C972.322 985.524 985.557 972.291 1000.52 961.272C985.476 950.225 972.173 936.941 961.102 921.911ZM665.102 625.511C653.956 640.642 640.548 654.004 625.375 665.096C640.355 676.171 653.593 689.466 664.602 704.498C675.733 689.299 689.142 675.875 704.327 664.727C689.36 653.707 676.125 640.475 665.102 625.511ZM961.299 625.511C950.227 640.541 936.923 653.824 921.875 664.872C936.842 675.891 950.078 689.124 961.102 704.088C972.173 689.058 985.476 675.775 1000.52 664.727C985.557 653.707 972.322 640.475 961.299 625.511ZM368.602 625.101C357.495 640.266 344.119 653.665 328.975 664.8C343.937 675.801 357.173 689.012 368.2 703.954C379.326 688.878 392.699 675.562 407.827 664.503C392.848 653.427 379.61 640.132 368.602 625.101ZM368.398 328.977C357.332 344.029 344.027 357.333 328.975 368.399C344.119 379.533 357.494 392.932 368.601 408.098C379.658 393 392.964 379.654 408.024 368.55C392.889 357.454 379.515 344.096 368.398 328.977ZM664.8 328.97C653.782 343.957 640.545 357.211 625.574 368.249C640.665 379.312 654.004 392.623 665.102 407.688C676.124 392.724 689.36 379.492 704.326 368.473C689.231 357.39 675.892 344.058 664.8 328.97ZM961.2 328.978C950.158 343.996 936.887 357.274 921.876 368.326C936.924 379.374 950.227 392.658 961.299 407.688C972.346 392.691 985.615 379.433 1000.62 368.399C985.57 357.333 972.267 344.029 961.2 328.978Z" fill="black" stroke="black" stroke-width="71.25"/>
</svg>
